<?xml version="1.0" encoding="UTF-8" standalone="no"?>
<svg
   xmlns:dc="http://purl.org/dc/elements/1.1/"
   xmlns:cc="http://creativecommons.org/ns#"
   xmlns:rdf="http://www.w3.org/1999/02/22-rdf-syntax-ns#"
   xmlns:svg="http://www.w3.org/2000/svg"
   xmlns="http://www.w3.org/2000/svg"
   xmlns:xlink="http://www.w3.org/1999/xlink"
   xmlns:sodipodi="http://sodipodi.sourceforge.net/DTD/sodipodi-0.dtd"
   xmlns:inkscape="http://www.inkscape.org/namespaces/inkscape"
   viewBox="0 0 64 64"
   version="1.0"
   width="64"
   height="64"
   xml:space="preserve"
   id="svg2"
   inkscape:version="0.91 r13725"
   sodipodi:docname="default.svg"><metadata
     id="metadata10"><rdf:RDF><cc:Work
         rdf:about=""><dc:format>image/svg+xml</dc:format><dc:type
           rdf:resource="http://purl.org/dc/dcmitype/StillImage" /><dc:title /></cc:Work></rdf:RDF></metadata><defs
     id="defs8"><linearGradient
       inkscape:collect="always"
       id="linearGradient3464"><stop
         id="stop3468"
         offset="0"
         style="stop-color:#ffffff;stop-opacity:1" /><stop
         id="stop3466"
         offset="1"
         style="stop-color:#999999;stop-opacity:1;" /></linearGradient><linearGradient
       inkscape:collect="always"
       xlink:href="#linearGradient3464"
       id="linearGradient3470"
       x1="0"
       y1="0"
       x2="64"
       y2="64"
       gradientUnits="userSpaceOnUse" /></defs><sodipodi:namedview
     pagecolor="#ffffff"
     bordercolor="#666666"
     borderopacity="1"
     objecttolerance="10"
     gridtolerance="10"
     guidetolerance="10"
     inkscape:pageopacity="0"
     inkscape:pageshadow="2"
     inkscape:window-width="1920"
     inkscape:window-height="1025"
     id="namedview6"
     showgrid="false"
     inkscape:snap-page="true"
     inkscape:zoom="2.7577164"
     inkscape:cx="24.338004"
     inkscape:cy="32"
     inkscape:window-x="-2"
     inkscape:window-y="-3"
     inkscape:window-maximized="1"
     inkscape:current-layer="svg2" /><rect
     style="color:#000000;display:inline;overflow:visible;visibility:visible;opacity:1;fill:url(#linearGradient3470);fill-opacity:1.0;fill-rule:nonzero;stroke:none;stroke-width:3;stroke-opacity:1;marker:none;enable-background:accumulate"
     id="rect3454"
     width="64"
     height="64"
     x="0"
     y="0" /><path
     id="path3417"
     style="fill:#999999"
     d="m 34.886719,25.9709 c -2.325442,0.108658 -3.801094,1.500157 -4.605469,2.503907 0.97,-0.4 1.569141,-0.401172 2.619141,-0.201172 13.19,2.52 3.090547,23.401015 -12.439453,11.791015 -1.37,-0.909999 -2.301016,-1.150234 -3.291016,-0.240234 -0.970001,0.93 -0.770313,2.400469 0.179688,3.230469 4,3.19 7.811484,4.538672 11.271484,4.638672 -0.55,0.65 -0.890156,1.451328 -0.910156,2.361328 -0.06,2.12 1.620234,3.879453 3.740234,3.939453 2.12,0.06 3.879453,-1.620234 3.939453,-3.740234 0.04,-1.39 -0.669297,-2.620078 -1.779297,-3.330078 8.82,-3.09 12.838282,-14.760391 4.988282,-20.150391 -1.425,-0.6375 -2.655872,-0.852124 -3.712891,-0.802735 z m -0.429688,-4.707031 c -3.006679,0.05766 -5.882187,1.407891 -7.835937,4.400391 -1.92,4.62 0.439922,7.149297 1.919922,8.279297 -0.44,-0.97 -0.439766,-1.569141 -0.259766,-2.619141 2.18,-13.25 23.319141,-3.700859 12.119141,12.119141 -0.87,1.39 -1.090625,2.341015 -0.140625,3.291015 0.95,0.95 2.420937,0.710235 3.210937,-0.259765 3.05,-4.06 4.299844,-7.921094 4.339844,-11.371094 l -0.0098,-0.0098 c 0.65,0.52 1.488907,0.84961 2.378907,0.84961 2.12,0 3.839844,-1.719844 3.839843,-3.839844 0,-2.12 -1.719843,-3.839844 -3.839843,-3.839844 -1.39,0 -2.599531,0.751328 -3.269531,1.861328 -2.068751,-5.4625 -7.441993,-8.957421 -12.453126,-8.861328 z M 22.076172,16.744338 c -0.585,0.0625 -1.149922,0.364609 -1.544922,0.849609 -3.07,4.06 -4.319845,7.941094 -4.339844,11.371094 l 0.0098,0.0098 c -0.67,-0.52 -1.500859,-0.84961 -2.380859,-0.84961 -2.12,0 -3.8398436,1.719844 -3.8398436,3.839844 0,2.12 1.7198436,3.839844 3.8398436,3.839844 1.39,0 2.599531,-0.751328 3.269532,-1.861328 3.33,8.74 15.081016,12.440937 20.291016,4.460937 1.92,-4.62 -0.439922,-7.149297 -1.919922,-8.279297 0.44,0.95 0.439765,1.569141 0.259765,2.619141 -2.16,13.25 -23.321094,3.700859 -12.121093,-12.119141 0.87,-1.39 1.090625,-2.341015 0.140625,-3.291015 -0.475,-0.475 -1.079063,-0.652344 -1.664063,-0.589844 z m 9.773438,-6.740234 c -2.12,0 -3.839844,1.719843 -3.839844,3.839843 0,1.39 0.751328,2.599532 1.861328,3.269532 -8.74,3.33 -12.440938,15.081015 -4.460937,20.291015 4.629999,1.92 7.151249,-0.449922 8.28125,-1.919922 -0.94,0.44 -1.551563,0.439766 -2.601563,0.259766 -13.24,-2.17 -3.688906,-23.329141 12.121094,-12.119141 1.39,0.87 2.339062,1.088672 3.289062,0.138672 0.95,-0.95 0.710235,-2.418984 -0.259765,-3.208984 l -0.0098,0.0098 c -4.06,-3.049999 -7.940625,-4.299843 -11.390625,-4.339843 0.53,-0.64 0.851563,-1.47086 0.851563,-2.38086 0,-2.12 -1.721797,-3.839843 -3.841797,-3.839843 z"
     inkscape:connector-curvature="0" /></svg>